<?xml version="1.0" encoding="UTF-8" standalone="no"?><!DOCTYPE svg PUBLIC "-//W3C//DTD SVG 1.1//EN" "http://www.w3.org/Graphics/SVG/1.1/DTD/svg11.dtd"><svg width="100%" height="100%" viewBox="0 0 490 438" version="1.1" xmlns="http://www.w3.org/2000/svg" xmlns:xlink="http://www.w3.org/1999/xlink" xml:space="preserve" xmlns:serif="http://www.serif.com/" style="fill-rule:evenodd;clip-rule:evenodd;stroke-linejoin:round;stroke-miterlimit:2;"><g><g><g id="Layer1"><path d="M242.483,199.2c6.133,-2.158 12.237,-4.724 17.649,-8.397c3.959,-2.686 9.221,-7.959 12.321,-11.56c3.618,-4.203 7.625,-9.439 9.624,-14.701c12.856,-33.835 -2.311,-69.46 -25.788,-94.42c-12.788,-13.596 -32.981,-18.827 -51.082,-18.917c-33.579,-0.167 -70.952,4.206 -94.952,30.499c-8.251,9.039 -14.734,18.19 -20.33,29.085c-12.482,24.302 -18.827,51.273 -21.842,78.278l-52.267,-0c-2.843,19.118 -2.823,38.683 0.848,57.692c2.771,14.35 5.925,28.707 12.451,41.881c6.909,13.949 15.2,27.932 25.937,39.319c34.989,37.105 88.73,45.872 137.177,48.19c16.423,0.787 32.853,1.502 49.292,1.814c16.441,0.311 32.887,0.152 49.331,0.055c0.772,-0.005 -1.522,-0.299 -2.294,-0.335c-15.355,-0.726 -30.715,-1.338 -46.075,-1.95l-0,-176.533Z" style="fill:#b000ff;"/><path d="M242.483,199.2c6.133,-2.158 12.237,-4.724 17.649,-8.397c3.959,-2.686 9.221,-7.959 12.321,-11.56c3.618,-4.203 7.625,-9.439 9.624,-14.701c12.856,-33.835 -2.311,-69.46 -25.788,-94.42c-12.788,-13.596 -32.981,-18.827 -51.082,-18.917c-33.579,-0.167 -70.952,4.206 -94.952,30.499c-8.251,9.039 -14.734,18.19 -20.33,29.085c-12.482,24.302 -18.827,51.273 -21.842,78.278l-52.267,-0c-2.843,19.118 -2.823,38.683 0.848,57.692c2.771,14.35 5.925,28.707 12.451,41.881c6.909,13.949 15.2,27.932 25.937,39.319c34.989,37.105 88.73,45.872 137.177,48.19c16.423,0.787 32.853,1.502 49.292,1.814c16.441,0.311 32.887,0.152 49.331,0.055c0.772,-0.005 -1.522,-0.299 -2.294,-0.335c-15.355,-0.726 -30.715,-1.338 -46.075,-1.95l-0,-176.533Zm-5.333,173.335c-14.896,-0.346 -29.784,-1 -44.666,-1.713c-47.123,-2.255 -99.519,-10.431 -133.552,-46.522c-10.378,-11.006 -18.359,-24.544 -25.038,-38.027c-6.312,-12.743 -9.313,-26.645 -11.994,-40.526c-3.265,-16.911 -3.538,-34.278 -1.428,-51.347c0,-0 47.611,-0 47.611,-0c2.716,-0 4.999,-2.042 5.3,-4.742c2.944,-26.364 9.1,-52.707 21.286,-76.432c5.373,-10.462 11.602,-19.247 19.525,-27.927c22.964,-25.157 58.857,-28.92 90.986,-28.761c16.705,0.083 35.422,4.691 47.224,17.238c22.124,23.521 36.803,56.987 24.687,88.872c-1.789,4.71 -5.441,9.354 -8.68,13.115c-2.843,3.302 -7.643,8.163 -11.273,10.627c-5.033,3.415 -10.722,5.772 -16.425,7.779c-2.135,0.751 -3.563,2.768 -3.563,5.031l-0,173.335Z" style="fill:#b000ff;"/></g><path d="M226.483,110.667c18.552,36.301 44.367,54.096 78.4,56l-0,48c-19.677,4.967 -28.882,26.152 -32.827,44.094c-1.019,4.634 -1.29,12.924 -0.525,17.612c2.115,12.962 10.082,23.966 16.329,35.101c2.424,4.322 4.909,8.617 7.079,13.072c11.353,23.305 12.976,40.571 9.944,57.058c-3.032,16.486 -18.558,35.798 -28.135,41.862c-15.893,10.064 -47.394,13.74 -67.109,0c-24.366,-16.981 -40.683,-68.883 -34.889,-81.329l51.733,-231.47Z"/><path d="M226.483,110.667c18.552,36.301 44.367,54.096 78.4,56l-0,48c-19.677,4.967 -28.882,26.152 -32.827,44.094c-1.019,4.634 -1.29,12.924 -0.525,17.612c2.115,12.962 10.082,23.966 16.329,35.101c2.424,4.322 4.909,8.617 7.079,13.072c11.353,23.305 12.976,40.571 9.944,57.058c-3.032,16.486 -18.558,35.798 -28.135,41.862c-15.893,10.064 -47.394,13.74 -67.109,0c-24.366,-16.981 -40.683,-68.883 -34.889,-81.329l51.733,-231.47Zm2.188,14.663c17.924,28.453 41.404,43.257 70.879,46.265c-0,0 -0,39.16 -0,39.16c-18.987,7.129 -28.636,28.368 -32.703,46.86c-1.135,5.162 -1.432,14.396 -0.58,19.616c2.216,13.581 10.397,25.186 16.941,36.852c2.374,4.232 4.812,8.436 6.937,12.799c10.7,21.965 12.35,38.218 9.493,53.757c-2.775,15.09 -16.978,32.771 -25.743,38.321c-14.495,9.179 -43.225,12.662 -61.206,0.131c-13.786,-9.608 -24.613,-31.208 -30.07,-49.375c-2.166,-7.209 -3.473,-13.89 -3.681,-19.092c-0.105,-2.649 -0.016,-4.813 0.647,-6.236c0.162,-0.349 0.286,-0.713 0.37,-1.088l48.716,-217.971l0,0.001Z"/><path id="one" d="M173.15,110.667l53.333,-0l-0,237.333c-0,0 -0.899,28.638 -26.953,28.267c-24.792,-0.354 -26.38,-28.267 -26.38,-28.267l-0,-157.333l-53.334,-0l53.334,-80Z" style="fill:#fff;"/><g id="period"><path d="M226.483,57.333l-0,-53.333l53.333,53.333l0,53.334l-53.333,-53.334Z"/><path d="M226.483,57.333l-0,-53.333l53.333,53.333l0,53.334l-53.333,-53.334Zm5.333,-2.209l0,-38.248c0,-0 42.667,42.666 42.667,42.666c-0,0 -0,38.249 -0,38.249l-42.667,-42.667Z"/></g></g><g><g transform="matrix(0.62634,0,0,0.62634,-616.616,-25.8753)"><g transform="matrix(128,0,0,128,1501.4,394.335)"><path d="M0.349,-0.66c0,0.007 -0.002,0.01 -0.005,0.012c-0.002,0.001 -0.007,-0 -0.012,-0.003c-0.009,-0.004 -0.018,-0.007 -0.026,-0.008c-0.008,-0.001 -0.017,-0.001 -0.028,0c-0.017,0.003 -0.029,0.015 -0.035,0.038c-0.001,0.005 -0.002,0.013 -0.003,0.024c-0.001,0.011 -0.001,0.023 -0.001,0.036l0,0.05l0.084,-0c0.008,-0 0.013,0.001 0.016,0.004c0.002,0.003 0.003,0.009 0.003,0.016l0,0.083c0,0.007 -0.001,0.012 -0.003,0.015c-0.003,0.003 -0.008,0.005 -0.016,0.005l-0.084,-0l0,0.423c0,0.008 -0.001,0.013 -0.004,0.016c-0.003,0.003 -0.008,0.004 -0.015,0.004l-0.093,-0c-0.007,-0 -0.012,-0.001 -0.015,-0.004c-0.003,-0.003 -0.004,-0.008 -0.004,-0.016l0,-0.423l-0.07,-0c-0.013,-0 -0.019,-0.007 -0.019,-0.02l0,-0.083c0,-0.013 0.006,-0.02 0.019,-0.02l0.07,-0l0,-0.043c0,-0.028 0.002,-0.056 0.007,-0.083c0.004,-0.027 0.012,-0.052 0.024,-0.073c0.011,-0.021 0.027,-0.037 0.048,-0.05c0.02,-0.012 0.046,-0.019 0.078,-0.02c0.013,-0.001 0.028,0 0.044,0.002c0.016,0.002 0.028,0.005 0.035,0.008c0.005,0.002 0.008,0.004 0.009,0.006c0.001,0.003 0.002,0.007 0.001,0.012l-0.005,0.092Z" style="fill-rule:nonzero;"/></g><g transform="matrix(128,0,0,128,1547.86,394.335)"><path d="M0.126,-0.591c-0.022,0 -0.04,-0.008 -0.055,-0.023c-0.015,-0.015 -0.022,-0.034 -0.022,-0.056c0,-0.022 0.007,-0.041 0.021,-0.056c0.015,-0.016 0.033,-0.024 0.056,-0.024c0.023,0 0.041,0.008 0.056,0.024c0.015,0.015 0.022,0.034 0.022,0.056c0,0.022 -0.007,0.041 -0.022,0.056c-0.015,0.015 -0.033,0.023 -0.056,0.023Zm-0.051,0.646c-0.006,-0 -0.01,-0.001 -0.012,-0.004c-0.003,-0.003 -0.004,-0.008 -0.004,-0.016l0,-0.521c0,-0.008 0.001,-0.013 0.003,-0.016c0.002,-0.003 0.006,-0.004 0.013,-0.004l0.099,0c0.007,0 0.011,0.001 0.014,0.004c0.002,0.003 0.003,0.008 0.003,0.016l0,0.521c-0,0.008 -0.001,0.013 -0.004,0.016c-0.002,0.003 -0.006,0.004 -0.013,0.004l-0.099,-0Z" style="fill-rule:nonzero;"/></g><g transform="matrix(128,0,0,128,1578.84,394.335)"><path d="M0.344,-0.385c-0.013,-0.005 -0.024,-0.009 -0.035,-0.01c-0.011,-0.001 -0.02,0 -0.028,0.003c-0.016,0.005 -0.029,0.014 -0.039,0.026c-0.009,0.012 -0.017,0.026 -0.022,0.042c-0.005,0.016 -0.008,0.033 -0.009,0.05c-0.001,0.017 -0.002,0.034 -0.002,0.05l-0,0.258c-0,0.008 -0.001,0.014 -0.004,0.017c-0.002,0.003 -0.007,0.004 -0.014,0.004l-0.096,0c-0.007,0 -0.012,-0.001 -0.014,-0.004c-0.002,-0.003 -0.003,-0.009 -0.003,-0.018l0,-0.396c0,-0.021 -0,-0.044 -0.001,-0.067c-0.001,-0.023 -0.001,-0.043 -0.001,-0.058c0,-0.009 0.001,-0.014 0.004,-0.017c0.003,-0.003 0.008,-0.004 0.015,-0.004l0.096,0c0.01,0 0.015,0.005 0.015,0.016l0,0.038c0.009,-0.013 0.02,-0.025 0.033,-0.037c0.013,-0.012 0.027,-0.019 0.042,-0.022c0.014,-0.003 0.028,-0.003 0.041,-0.002c0.014,0.001 0.025,0.004 0.032,0.009c0.003,0.003 0.006,0.005 0.007,0.008c0.001,0.002 0.001,0.006 0.001,0.011l0,0.087c-0,0.007 -0.001,0.013 -0.004,0.016c-0.003,0.003 -0.007,0.003 -0.014,-0Z" style="fill-rule:nonzero;"/></g><g transform="matrix(128,0,0,128,1625.3,394.335)"><path d="M0.328,0.034c-0.017,0.013 -0.037,0.023 -0.059,0.028c-0.022,0.005 -0.045,0.008 -0.07,0.009c-0.013,0 -0.026,-0.001 -0.041,-0.003c-0.015,-0.001 -0.029,-0.003 -0.042,-0.006c-0.013,-0.002 -0.026,-0.005 -0.037,-0.008c-0.011,-0.003 -0.02,-0.006 -0.026,-0.009c-0.007,-0.003 -0.012,-0.006 -0.014,-0.009c-0.003,-0.002 -0.004,-0.007 -0.003,-0.014l0.008,-0.073c0.001,-0.008 0.002,-0.013 0.005,-0.015c0.003,-0.002 0.008,-0.002 0.015,0.001c0.021,0.007 0.042,0.014 0.065,0.019c0.022,0.005 0.045,0.008 0.069,0.008c0.024,-0 0.042,-0.006 0.053,-0.018c0.011,-0.012 0.017,-0.027 0.017,-0.045c0,-0.013 -0.006,-0.025 -0.018,-0.038c-0.011,-0.012 -0.025,-0.023 -0.041,-0.034c-0.016,-0.011 -0.032,-0.021 -0.049,-0.03c-0.017,-0.009 -0.03,-0.016 -0.04,-0.022c-0.022,-0.013 -0.04,-0.031 -0.055,-0.052c-0.015,-0.021 -0.023,-0.045 -0.023,-0.073c0,-0.03 0.005,-0.056 0.016,-0.078c0.01,-0.021 0.024,-0.039 0.041,-0.053c0.017,-0.014 0.036,-0.024 0.059,-0.031c0.022,-0.007 0.045,-0.01 0.068,-0.01c0.012,0 0.025,0.001 0.039,0.003c0.013,0.001 0.026,0.003 0.039,0.006c0.012,0.003 0.023,0.006 0.034,0.009c0.011,0.003 0.019,0.006 0.025,0.009c0.007,0.003 0.011,0.006 0.012,0.009c0.001,0.003 0.001,0.007 0,0.012l-0.009,0.076c-0.001,0.008 -0.004,0.012 -0.007,0.013c-0.003,0.001 -0.009,0 -0.016,-0.003c-0.035,-0.017 -0.072,-0.024 -0.111,-0.023c-0.021,0.001 -0.037,0.006 -0.046,0.015c-0.01,0.01 -0.015,0.024 -0.015,0.041c0,0.007 0.004,0.016 0.013,0.027c0.009,0.011 0.024,0.022 0.046,0.034c0.021,0.011 0.039,0.022 0.056,0.032c0.017,0.011 0.029,0.019 0.038,0.025c0.024,0.019 0.042,0.037 0.055,0.056c0.012,0.019 0.018,0.044 0.018,0.075c0,0.029 -0.006,0.056 -0.017,0.079c-0.011,0.024 -0.029,0.044 -0.052,0.061Z" style="fill-rule:nonzero;"/></g><g transform="matrix(128,0,0,128,1679.58,394.335)"><path d="M0.351,0.048c-0.013,0.006 -0.029,0.011 -0.048,0.016c-0.019,0.004 -0.04,0.006 -0.064,0.005c-0.025,-0.001 -0.047,-0.007 -0.067,-0.019c-0.02,-0.011 -0.035,-0.025 -0.044,-0.042c-0.009,-0.019 -0.015,-0.041 -0.017,-0.066c-0.002,-0.024 -0.003,-0.055 -0.003,-0.094l-0,-0.236l-0.071,0c-0.013,-0 -0.019,-0.007 -0.019,-0.02l-0,-0.083c-0,-0.013 0.006,-0.02 0.019,-0.02l0.071,0l-0,-0.133c-0,-0.013 0.007,-0.02 0.02,-0.02l0.092,0c0.013,0 0.019,0.007 0.019,0.02l-0,0.133l0.085,0c0.008,0 0.013,0.001 0.015,0.004c0.003,0.004 0.004,0.009 0.004,0.016l-0,0.083c-0,0.007 -0.001,0.012 -0.004,0.015c-0.002,0.003 -0.007,0.005 -0.015,0.005l-0.085,-0l-0,0.282c-0,0.015 0.001,0.025 0.002,0.03c0.003,0.013 0.008,0.021 0.017,0.024c0.009,0.003 0.018,0.004 0.028,0.003c0.01,-0.001 0.02,-0.004 0.029,-0.007c0.009,-0.003 0.017,-0.006 0.022,-0.009c0.005,-0.003 0.009,-0.003 0.012,-0.001c0.003,0.003 0.004,0.008 0.005,0.015l0.009,0.075c0.001,0.006 0,0.011 -0.001,0.014c-0.001,0.004 -0.005,0.007 -0.011,0.01Z" style="fill-rule:nonzero;"/></g><g transform="matrix(128,0,0,128,1501.4,522.335)"><path d="M0.196,0.153c-0.011,0.022 -0.027,0.038 -0.049,0.049c-0.021,0.011 -0.043,0.016 -0.066,0.016c-0.007,-0 -0.017,-0.001 -0.031,-0.002c-0.013,-0.001 -0.023,-0.003 -0.03,-0.006c-0.005,-0.002 -0.008,-0.004 -0.009,-0.006c-0.001,-0.002 -0.002,-0.006 -0.002,-0.012l-0,-0.073c-0,-0.007 0.001,-0.012 0.002,-0.016c0.002,-0.004 0.007,-0.004 0.015,-0.001c0.015,0.005 0.028,0.007 0.039,0.005c0.011,-0.002 0.018,-0.008 0.019,-0.018c0.001,-0.006 0.002,-0.018 0.002,-0.037c0.001,-0.019 0.001,-0.038 0.001,-0.057l-0,-0.483c-0,-0.013 0.006,-0.02 0.018,-0.02l0.097,0c0.007,0 0.012,0.001 0.014,0.004c0.002,0.003 0.003,0.009 0.003,0.016l-0,0.487c-0,0.024 -0,0.044 -0.001,0.06c-0.001,0.015 -0.002,0.029 -0.004,0.04c-0.002,0.01 -0.005,0.02 -0.008,0.028c-0.003,0.009 -0.006,0.017 -0.01,0.026Zm-0.042,-0.744c-0.022,0 -0.04,-0.008 -0.055,-0.023c-0.015,-0.015 -0.022,-0.034 -0.022,-0.056c-0,-0.022 0.007,-0.041 0.021,-0.056c0.015,-0.016 0.033,-0.024 0.056,-0.024c0.023,0 0.041,0.008 0.056,0.024c0.015,0.015 0.022,0.034 0.022,0.056c0,0.022 -0.007,0.041 -0.022,0.056c-0.015,0.015 -0.033,0.023 -0.056,0.023Z" style="fill-rule:nonzero;"/></g><g transform="matrix(128,0,0,128,1535.83,522.335)"><path d="M0.419,0.057c-0.007,0 -0.012,-0.001 -0.014,-0.003c-0.003,-0.002 -0.004,-0.006 -0.004,-0.011l0,-0.038c-0.006,0.009 -0.014,0.018 -0.023,0.026c-0.01,0.007 -0.021,0.014 -0.032,0.019c-0.011,0.005 -0.023,0.01 -0.035,0.013c-0.012,0.003 -0.023,0.005 -0.034,0.005c-0.065,0 -0.114,-0.019 -0.147,-0.058c-0.033,-0.039 -0.049,-0.094 -0.049,-0.165l0,-0.332c0,-0.007 0.001,-0.013 0.004,-0.016c0.003,-0.003 0.008,-0.005 0.015,-0.005l0.092,0c0.008,0 0.013,0.002 0.016,0.006c0.003,0.005 0.004,0.01 0.004,0.016l0,0.314c0,0.023 0.002,0.042 0.006,0.057c0.003,0.016 0.008,0.027 0.015,0.036c0.007,0.009 0.015,0.016 0.025,0.019c0.009,0.004 0.02,0.006 0.032,0.006c0.029,-0 0.054,-0.012 0.075,-0.035c0.02,-0.023 0.03,-0.058 0.03,-0.107l0,-0.291c0,-0.007 0.001,-0.013 0.004,-0.016c0.003,-0.003 0.008,-0.005 0.015,-0.005l0.093,0c0.008,0 0.013,0.002 0.016,0.007c0.002,0.005 0.003,0.01 0.003,0.016l0,0.401c0,0.02 0,0.041 0.001,0.062c0.001,0.022 0.001,0.041 0.001,0.058c0,0.009 -0.001,0.014 -0.002,0.017c-0.002,0.003 -0.008,0.004 -0.017,0.004l-0.09,-0Z" style="fill-rule:nonzero;"/></g><g transform="matrix(128,0,0,128,1613.4,522.335)"><path d="M0.374,0.057c-0.006,0 -0.01,-0.001 -0.012,-0.002c-0.001,-0.001 -0.002,-0.005 -0.002,-0.012l0,-0.043c-0.011,0.018 -0.03,0.033 -0.055,0.046c-0.026,0.013 -0.052,0.019 -0.077,0.019c-0.027,0 -0.054,-0.004 -0.079,-0.011c-0.025,-0.008 -0.046,-0.02 -0.062,-0.036c-0.017,-0.017 -0.03,-0.036 -0.039,-0.059c-0.009,-0.023 -0.014,-0.05 -0.014,-0.079c0,-0.035 0.008,-0.066 0.025,-0.094c0.017,-0.028 0.039,-0.05 0.067,-0.066c0.027,-0.015 0.06,-0.026 0.098,-0.033c0.038,-0.007 0.08,-0.01 0.126,-0.007c-0.004,-0.053 -0.027,-0.082 -0.068,-0.087c-0.013,-0.001 -0.027,-0.001 -0.04,0.001c-0.014,0.002 -0.027,0.005 -0.04,0.01c-0.013,0.004 -0.026,0.009 -0.038,0.015c-0.012,0.005 -0.023,0.011 -0.032,0.017c-0.014,0.009 -0.024,0.014 -0.03,0.014c-0.006,0 -0.009,-0.007 -0.009,-0.02l0,-0.083c0,-0.009 0.001,-0.015 0.003,-0.018c0.001,-0.004 0.006,-0.008 0.014,-0.012c0.02,-0.01 0.044,-0.019 0.071,-0.028c0.027,-0.009 0.058,-0.013 0.095,-0.013c0.068,0 0.119,0.017 0.153,0.052c0.033,0.035 0.05,0.088 0.05,0.161l0,0.257c0,0.01 0,0.02 0.001,0.031c-0,0.011 0,0.021 0.001,0.031c-0,0.009 0,0.018 0.001,0.025c0.001,0.013 0.001,0.021 -0.002,0.022c-0.003,0.001 -0.007,0.002 -0.014,0.002l-0.092,0Zm-0.014,-0.276c-0.038,0.001 -0.069,0.004 -0.094,0.009c-0.025,0.005 -0.044,0.011 -0.059,0.02c-0.015,0.009 -0.026,0.019 -0.031,0.031c-0.005,0.012 -0.008,0.025 -0.008,0.04c0,0.021 0.006,0.038 0.019,0.05c0.013,0.011 0.03,0.017 0.053,0.017c0.036,0 0.065,-0.013 0.087,-0.039c0.021,-0.027 0.032,-0.069 0.033,-0.128Z" style="fill-rule:nonzero;"/></g><g transform="matrix(128,0,0,128,1683.16,522.335)"><path d="M0.209,0.035c0,0.008 -0.001,0.013 -0.004,0.016c-0.003,0.003 -0.008,0.004 -0.015,0.004l-0.093,-0c-0.008,-0 -0.013,-0.002 -0.016,-0.005c-0.003,-0.003 -0.004,-0.009 -0.004,-0.016l0,-0.391c0,-0.025 0,-0.051 0.001,-0.077c-0,-0.026 -0.001,-0.046 -0.003,-0.059c-0.001,-0.007 -0.001,-0.012 0.002,-0.014c0.003,-0.002 0.009,-0.003 0.018,-0.003l0.095,0c0.007,0 0.012,0.001 0.014,0.002c0.002,0.001 0.003,0.005 0.003,0.011l0,0.038c0.014,-0.015 0.032,-0.028 0.054,-0.04c0.023,-0.013 0.046,-0.019 0.069,-0.019c0.067,0 0.115,0.019 0.147,0.057c0.03,0.038 0.046,0.093 0.046,0.166l0,0.33c0,0.008 -0.001,0.013 -0.004,0.016c-0.003,0.003 -0.008,0.004 -0.015,0.004l-0.093,0c-0.013,0 -0.02,-0.007 -0.02,-0.021l0,-0.309c0,-0.081 -0.024,-0.121 -0.073,-0.121c-0.034,-0 -0.061,0.011 -0.08,0.033c-0.019,0.022 -0.029,0.052 -0.029,0.09l0,0.308Z" style="fill-rule:nonzero;"/></g></g></g></g></svg>